<svg width="3031" height="791" viewBox="0 0 3031 791" fill="none" xmlns="http://www.w3.org/2000/svg">
<g clip-path="url(#clip0_342_1700)">
<mask id="mask0_342_1700" style="mask-type:luminance" maskUnits="userSpaceOnUse" x="-614" y="-195" width="4000" height="1267">
<path d="M-614 -194.328H3385.99V1071.44H-614V-194.328Z" fill="white"/>
</mask>
<g mask="url(#mask0_342_1700)">
<path d="M638.227 474.981C654.381 491.32 674.657 499.48 699.071 499.48C723.478 499.48 743.762 491.32 759.915 474.981C776.068 458.652 784.144 438.097 784.144 413.329C784.144 388.561 776.068 368.016 759.915 351.677C743.762 335.348 723.478 327.179 699.071 327.179C674.657 327.179 654.381 335.348 638.227 351.677C622.074 368.016 613.998 388.561 613.998 413.329C613.998 438.097 622.074 458.652 638.227 474.981ZM784.144 278.719H842.296V547.939H784.144V509.173C762.246 539.686 730.839 554.939 689.918 554.939C652.942 554.939 621.35 541.209 595.153 513.749C568.946 486.288 555.846 452.821 555.846 413.329C555.846 373.484 568.946 339.924 595.153 312.641C621.35 285.365 652.942 271.719 689.918 271.719C730.839 271.719 762.246 286.795 784.144 316.949V278.719Z" fill="white"/>
<path d="M1204.12 271.719C1234.63 271.719 1259.22 281.596 1277.89 301.333C1296.55 321.079 1305.89 347.639 1305.89 381.023V547.939H1247.74V384.792C1247.74 366.132 1243.07 351.677 1233.74 341.448C1224.4 331.217 1211.66 326.101 1195.51 326.101C1177.55 326.101 1163.29 332.024 1152.7 343.871C1142.11 355.716 1136.82 373.484 1136.82 397.176V547.939H1078.67V384.792C1078.67 366.132 1074.27 351.677 1065.47 341.448C1056.67 331.217 1044.21 326.101 1028.05 326.101C1010.46 326.101 996.1 332.117 984.979 344.14C973.847 356.171 968.287 373.847 968.287 397.176V547.939H910.135V278.719H968.287V311.025C985.516 284.827 1011.18 271.719 1045.28 271.719C1079.74 271.719 1105.23 285.904 1121.74 314.256C1139.69 285.904 1167.15 271.719 1204.12 271.719Z" fill="white"/>
<path d="M1450.73 474.981C1466.88 491.319 1487.16 499.479 1511.57 499.479C1535.98 499.479 1556.26 491.319 1572.42 474.981C1588.57 458.651 1596.65 438.097 1596.65 413.329C1596.65 388.561 1588.57 368.016 1572.42 351.677C1556.26 335.348 1535.98 327.178 1511.57 327.178C1487.16 327.178 1466.88 335.348 1450.73 351.677C1434.58 368.016 1426.5 388.561 1426.5 413.329C1426.5 438.097 1434.58 458.651 1450.73 474.981ZM1520.73 271.719C1557.69 271.719 1589.28 285.449 1615.49 312.909C1641.69 340.37 1654.8 373.846 1654.8 413.329C1654.8 453.175 1641.69 486.742 1615.49 514.017C1589.28 541.301 1557.69 554.939 1520.73 554.939C1479.8 554.939 1448.39 539.862 1426.5 509.71V655.627H1368.35V278.719H1426.5V317.486C1448.39 286.98 1479.8 271.719 1520.73 271.719Z" fill="white"/>
<path d="M1752.79 390.714H1911.09C1907.14 368.823 1898.07 352.307 1883.9 341.177C1869.71 330.055 1853.11 324.486 1834.09 324.486C1812.56 324.486 1794.6 330.409 1780.25 342.254C1765.89 354.099 1756.73 370.253 1752.79 390.714ZM1753.33 438.096C1757.64 458.556 1767.5 474.266 1782.94 485.211C1798.37 496.163 1817.22 501.634 1839.48 501.634C1870.35 501.634 1893.5 490.51 1908.94 468.25L1956.86 496.248C1930.29 535.379 1890.98 554.938 1838.94 554.938C1795.14 554.938 1759.79 541.57 1732.87 514.824C1705.94 488.088 1692.48 454.251 1692.48 413.329C1692.48 373.13 1705.76 339.478 1732.33 312.37C1758.89 285.272 1792.99 271.718 1834.63 271.718C1874.11 271.718 1906.51 285.541 1931.82 313.178C1957.13 340.823 1969.78 374.383 1969.78 413.867C1969.78 419.974 1969.06 428.051 1967.63 438.096H1753.33Z" fill="white"/>
<path d="M2079.08 323.948C2093.79 290.564 2121.43 273.872 2161.99 273.872V336.871C2139.73 335.44 2120.35 340.732 2103.84 352.755C2087.33 364.785 2079.08 384.616 2079.08 412.253V547.939H2020.92V278.719H2079.08V323.948Z" fill="white"/>
<path d="M2247.61 352.664C2247.61 361.53 2252.58 368.53 2262.53 373.662C2272.47 378.802 2284.41 383.514 2298.33 387.805C2312.26 392.096 2326.53 396.496 2341.14 400.997C2355.75 405.498 2367.96 413.826 2377.75 425.991C2387.54 438.158 2392.45 453.502 2392.45 472.019C2392.45 497.866 2382.49 518.15 2362.57 532.865C2342.64 547.587 2317.61 554.94 2287.45 554.94C2260.88 554.94 2238.09 549.371 2219.07 538.248C2200.04 527.126 2186.23 511.689 2177.61 491.943L2227.69 462.867C2237.02 488.713 2256.94 501.635 2287.45 501.635C2317.96 501.635 2333.22 491.581 2333.22 471.474C2333.22 462.858 2328.28 455.859 2318.41 450.474C2308.54 445.09 2296.64 440.251 2282.72 435.962C2268.45 431.563 2254.18 427.166 2239.91 422.77C2225.3 418.277 2213.06 410.193 2203.19 398.523C2193.31 386.862 2188.38 372.054 2188.38 354.101C2188.38 329.333 2197.8 309.412 2216.65 294.334C2235.5 279.258 2258.92 271.72 2286.92 271.72C2309.17 271.72 2329 276.658 2346.41 286.526C2363.82 296.404 2377.19 310.134 2386.53 327.718L2337.53 355.178C2328.19 334.718 2311.32 324.488 2286.92 324.488C2275.78 324.488 2266.45 326.885 2258.92 331.664C2251.38 336.45 2247.61 343.45 2247.61 352.664Z" fill="white"/>
<path d="M2503.92 474.981C2520.07 491.32 2540.35 499.48 2564.76 499.48C2589.17 499.48 2609.45 491.32 2625.6 474.981C2641.76 458.652 2649.83 438.097 2649.83 413.329C2649.83 388.561 2641.76 368.016 2625.6 351.677C2609.45 335.348 2589.17 327.179 2564.76 327.179C2540.35 327.179 2520.07 335.348 2503.92 351.677C2487.76 368.016 2479.69 388.561 2479.69 413.329C2479.69 438.097 2487.76 458.652 2503.92 474.981ZM2649.83 278.719H2707.98V547.939H2649.83V509.173C2627.93 539.686 2596.53 554.939 2555.61 554.939C2518.63 554.939 2487.04 541.209 2460.84 513.749C2434.63 486.288 2421.54 452.821 2421.54 413.329C2421.54 373.484 2434.63 339.924 2460.84 312.641C2487.04 285.365 2518.63 271.719 2555.61 271.719C2596.53 271.719 2627.93 286.795 2649.83 316.949V278.719Z" fill="white"/>
<path d="M2917.43 271.719C2948.3 271.719 2973.24 281.596 2992.28 301.333C3011.3 321.079 3020.81 348.179 3020.81 382.639V547.939H2962.66V388.56C2962.66 368.463 2957.28 353.024 2946.51 342.255C2935.74 331.487 2921.02 326.101 2902.35 326.101C2881.9 326.101 2865.38 332.479 2852.82 345.216C2840.25 357.963 2833.97 377.439 2833.97 403.637V547.939H2775.82V278.719H2833.97V313.179C2851.56 285.541 2879.38 271.719 2917.43 271.719Z" fill="white"/>
</g>
<path d="M234.41 106.133L23.1129 552.341L24.1679 297.119L234.41 106.133Z" fill="white"/>
<path d="M234.419 105.073L445.716 554.334L444.661 297.372L234.419 105.073Z" fill="white"/>
</g>
<defs>
<clipPath id="clip0_342_1700">
<rect width="3031" height="791" fill="white"/>
</clipPath>
</defs>
</svg>
