<svg xmlns="http://www.w3.org/2000/svg" width="200" height="37" viewBox="0 0 200 37" fill="none">
<g clip-path="url(#clip0_347_2453)">
<path d="M84.473 5.61816H93.6856L86.5791 31.3862H75.696L73.5122 21.9024H72.996L70.8483 31.3862H59.9707L52.8809 5.61816H62.0963L65.6398 20.014H65.8979L69.9131 5.61816H76.6311L80.5687 20.014H80.8268L84.473 5.61816Z" fill="#000000"/>
<path d="M119.384 31.3862V5.61816H128.194V31.3862H119.384Z" fill="#000000"/>
<path d="M151.034 12.2108H145.815V31.3862H137.004V12.2108H130.622V5.61816H152.205L151.034 12.2108Z" fill="#000000"/>
<path d="M172.246 21.6609H163.433V24.778H175.59L174.225 31.3836H154.623V5.61816H174.006L172.896 12.229H163.433V15.6838H172.246V21.6609Z" fill="#000000"/>
<path d="M186.675 12.2266V14.2398L189.833 14.5151C191.48 14.6421 193.106 14.9472 194.678 15.4243C195.835 15.7732 196.903 16.3408 197.817 17.0919C198.596 17.7539 199.179 18.5945 199.506 19.531C199.851 20.5771 200.016 21.6679 199.995 22.7624C200.038 24.2586 199.789 25.7497 199.262 27.1627C198.888 28.1743 198.286 29.099 197.497 29.8746C196.895 30.4004 196.182 30.8037 195.405 31.0591C194.548 31.3512 193.662 31.5643 192.761 31.6955C191.832 31.834 190.895 31.9207 189.955 31.9553C189.012 31.9882 188.161 32.0055 187.402 32.0072C185.563 32.0099 183.725 31.918 181.897 31.7319C180.182 31.5586 178.479 31.2985 176.794 30.9526L178.015 24.7937H190.524V22.7624L186.559 22.4533C185.037 22.3444 183.533 22.068 182.08 21.6299C180.997 21.31 180.006 20.7627 179.183 20.0298C178.457 19.3509 177.926 18.5109 177.64 17.588C177.314 16.4989 177.159 15.3708 177.182 14.2398C177.144 12.7488 177.341 11.2607 177.768 9.82386C178.102 8.72918 178.75 7.741 179.641 6.96651C180.594 6.19941 181.74 5.67277 182.971 5.43654C184.605 5.11443 186.273 4.96543 187.943 4.99235C191.498 4.96212 195.045 5.31071 198.516 6.03138L197.045 12.2318L186.675 12.2266Z" fill="#000000"/>
<path d="M110.391 5.61816H96.769L89.6514 31.3862H98.9389L99.9296 27.2976H107.197L108.224 31.3862H117.511L110.391 5.61816ZM101.545 20.7361L103.343 13.52H103.82L105.582 20.7361H101.545Z" fill="#000000"/>
<path d="M44.9033 0H0V37H44.9033V0Z" fill="#000000"/>
<path d="M11.636 8.52539C13.6709 13.5474 15.7058 18.5694 17.7407 23.5914H23.1906C24.3006 22.0328 25.38 20.4457 26.4816 18.8794C27.1226 20.4379 27.7553 22.0198 28.3935 23.5914H33.8767C32.7445 25.2192 31.6096 26.8479 30.4719 28.4774H24.764C24.1341 27.015 23.4931 25.5552 22.8687 24.0875C21.8586 25.5552 20.8319 27.0124 19.8163 28.4774H14.1112C12.03 23.6771 9.95159 18.8768 7.87598 14.0764C9.12653 12.2269 10.3799 10.3775 11.636 8.52799V8.52539Z" fill="#ffffff"/>
<path d="M32.9465 8.52539L37.0839 18.7469H31.2094C30.5342 17.1883 29.8599 15.6298 29.1865 14.0712L32.9465 8.52539Z" fill="#ffffff"/>
<path d="M18.5312 14.0686C19.7855 12.2226 21.0379 10.3749 22.2885 8.52539L26.4508 18.8066H20.5791C19.8965 17.2273 19.2139 15.648 18.5312 14.0686Z" fill="#ffffff"/>
</g>
<defs fill="#ffffff">
<clipPath id="clip0_347_2453" fill="#ffffff">
<rect width="200" height="37" fill="#000000"/>
</clipPath>
</defs>
</svg>