<svg width="204" height="80" viewBox="0 0 204 80" fill="none" xmlns="http://www.w3.org/2000/svg">
<g clip-path="url(#clip0_342_1989)">
<path fill-rule="evenodd" clip-rule="evenodd" d="M42.8271 79.5423C22.1147 79.5423 11.3632 74.9753 4.91515 64.2117C1.28619 58.0248 -3.05176e-05 46.9034 -3.05176e-05 39.7687C-3.05176e-05 32.6341 1.28619 21.5296 4.91515 15.3282C11.3632 4.56462 22.1147 0 42.8271 0C63.5395 0 74.3007 4.56462 80.7366 15.3282C84.3632 21.5296 85.6494 32.6341 85.6494 39.7687C85.6494 46.9034 84.3632 58.0127 80.7366 64.2117C74.3007 74.9753 63.5371 79.5423 42.8271 79.5423ZM53.2353 62.2509C50.8926 62.2509 47.4981 61.1968 45.8637 57.4518L35.5692 32.5277C33.3425 26.9114 37.6774 21.6481 42.7062 21.6481C45.0466 21.6481 48.4386 22.7046 50.0754 26.4472L60.3724 51.3665C62.5966 56.9828 58.2665 62.2485 53.2353 62.2485V62.2509ZM32.5253 62.2509C30.1874 62.2509 26.7929 61.1968 25.1537 57.4518L14.8567 32.5277C12.6349 26.9114 16.9626 21.6481 21.9938 21.6481C24.3365 21.6481 27.7286 22.7046 29.3678 26.4472L39.6623 51.3665C41.8866 56.9828 37.5589 62.2485 32.5253 62.2485V62.2509ZM66.1627 43.4219C63.8224 43.4219 60.428 42.3654 58.7912 38.6203L56.2792 32.5302C54.0549 26.9138 58.3802 21.6505 63.4114 21.6505C65.7517 21.6505 69.1462 22.707 70.783 26.4496L73.3022 32.5398C75.5289 38.1513 71.194 43.4195 66.1627 43.4195V43.4219Z" fill="white"/>
<path d="M101.224 25.5693L104.493 12.8933L107.762 25.5693H111.925L117.181 6.50088H112.955L109.957 18.4443C109.911 18.6892 109.851 18.9313 109.778 19.1696V19.2083C109.778 19.1793 109.764 19.1503 109.759 19.1237C109.683 18.8771 109.622 18.626 109.577 18.3718L106.507 6.49121H102.489L99.4134 18.3984C99.368 18.6532 99.3075 18.9051 99.2321 19.1527C99.2275 19.1739 99.2219 19.1949 99.2151 19.2156C99.2123 19.1968 99.2082 19.1782 99.203 19.16C99.1275 18.914 99.0669 18.6637 99.0217 18.4105L96.031 6.50088H91.8025L97.061 25.5693H101.224Z" fill="white"/>
<path d="M119.159 25.5694L121.013 20.7219H127.809L129.664 25.5694H133.967L126.322 6.66538L126.257 6.50098H122.577L114.867 25.5694H119.159ZM123.968 12.9732L124.41 11.6918L124.652 12.3881L126.424 17.0736H122.406L123.968 12.9732Z" fill="white"/>
<path d="M150.219 12.0085C150.219 8.61163 147.591 6.50098 143.36 6.50098H135.176V25.5694H139.194V18.0455H141.752L146.044 25.5694H150.637L146.094 17.6031C148.831 16.5151 150.219 14.6341 150.219 12.0085ZM146.198 12.272C146.198 13.7226 145.231 14.448 143.36 14.448H139.194V10.0961H143.37C145.243 10.0961 146.198 10.8287 146.198 12.272Z" fill="white"/>
<path d="M156.713 13.0554L156.756 13.1351C156.838 13.2912 156.93 13.4422 157.03 13.5873L164.766 25.4557L164.844 25.5742H168.797V6.50098H164.887V18.9425L164.839 18.8578C164.757 18.7018 164.666 18.5508 164.566 18.4057L156.752 6.50098H152.799V25.5694H156.71L156.713 13.0554Z" fill="white"/>
<path d="M184.454 17.5426V13.8943H175.897V10.1493H185.196V6.50098H171.877V25.5694H185.276V21.9235H175.897V17.5426H184.454Z" fill="white"/>
<path d="M198.641 17.6031C201.377 16.5151 202.751 14.6341 202.751 12.0085C202.751 8.61163 200.123 6.50098 195.894 6.50098H187.722V25.5694H191.741V18.0455H194.296L198.59 25.5694H203.183L198.641 17.6031ZM198.735 12.272C198.735 13.7226 197.78 14.448 195.897 14.448H191.741V10.0961H195.906C197.79 10.0961 198.735 10.8287 198.735 12.272Z" fill="white"/>
<path d="M105.112 44.3432L99.3771 30.0498H95.2574V49.1206H99.1716V39.2032L99.573 40.4556L103.27 49.1206H106.952L110.658 40.4338L111.05 39.2032V49.1206H114.964V30.0498H110.844L105.112 44.3432Z" fill="white"/>
<path d="M117.834 30.0498V41.8385C117.834 46.4878 120.921 49.4905 125.699 49.4905C130.476 49.4905 133.563 46.4878 133.563 41.8385V30.0498H129.545V41.4928C129.545 44.1885 128.143 45.7358 125.699 45.7358C123.254 45.7358 121.852 44.1885 121.852 41.4928V30.0498H117.834Z" fill="white"/>
<path d="M143.425 45.8952C140.925 45.8952 139.516 44.5582 138.991 41.6836L138.928 41.3403L135.365 43.1535L135.408 43.3494C136.23 47.2515 139.163 49.4903 143.452 49.4903C148.164 49.4903 150.628 46.4948 150.628 43.5331C150.628 40.3248 148.693 38.4898 144.354 37.5807C141.283 36.9497 140.084 36.2123 140.084 34.9479C140.084 33.6834 141.614 33.2748 142.925 33.2748C144.965 33.2748 146.353 34.3193 147.049 36.384L147.151 36.6838L150.381 34.827L150.306 34.6215C149.114 31.3406 146.66 29.6797 143.014 29.6797C138.96 29.6797 136.245 31.829 136.245 35.0276C136.245 38.0038 138.437 40.1242 142.255 40.847C145.446 41.4974 146.631 42.2614 146.631 43.6661C146.609 45.02 145.359 45.8952 143.425 45.8952Z" fill="white"/>
<path d="M156.851 30.0498H152.832V49.1182H156.851V30.0498Z" fill="white"/>
<path d="M176.993 44.3938L177.13 44.1835L173.956 41.9036L173.816 42.1647C172.542 44.534 170.728 45.7356 168.429 45.7356C165.124 45.7356 162.728 43.1487 162.728 39.585C162.728 36.0213 165.124 33.4344 168.429 33.4344C170.798 33.4344 172.442 34.5489 173.598 36.9425L173.733 37.2229L176.993 34.8753L176.905 34.6819C175.501 31.5389 172.372 29.6797 168.535 29.6797C162.81 29.6797 158.654 33.8454 158.654 39.5923C158.654 45.4238 162.663 49.5048 168.402 49.5048C172.745 49.4903 174.841 47.6287 176.993 44.3938Z" fill="white"/>
<path d="M101.901 65.6192H107.829C107.556 66.92 106.575 69.2845 103.054 69.2845C99.822 69.2845 97.5663 66.7555 97.5663 63.1338C97.5663 59.5121 99.984 56.8236 103.32 56.8236C105.711 56.8236 107.547 57.9382 108.625 60.0464L108.765 60.3172L111.814 58.1002L111.712 57.9019C110.22 54.9765 107.104 53.2285 103.371 53.2285C97.7403 53.2285 93.4924 57.4861 93.4924 63.1411C93.4924 68.7961 97.559 73.0537 102.948 73.0537C105.31 73.0537 107.215 72.1639 108.494 70.474L109.14 72.6837H111.901V62.2369H101.901V65.6192Z" fill="white"/>
<path d="M129.589 59.1052C129.589 55.7083 126.961 53.5977 122.73 53.5977H114.539V72.6685H118.559V65.1422H121.127L125.418 72.6685H130.012L125.462 64.6901C128.194 63.6118 129.589 61.7332 129.589 59.1052ZM125.57 59.3711C125.57 60.8217 124.603 61.5471 122.73 61.5471H118.559V57.1952H122.722C124.606 57.1928 125.563 57.9253 125.563 59.3711H125.57Z" fill="white"/>
<path d="M140.684 53.2285C135.096 53.2285 130.885 57.4861 130.885 63.1411C130.885 68.7961 135.096 73.0537 140.684 73.0537C146.271 73.0537 150.482 68.7961 150.482 63.1411C150.482 57.4861 146.271 53.2285 140.684 53.2285ZM146.411 63.1411C146.411 66.8208 144.109 69.2917 140.684 69.2917C137.258 69.2917 134.956 66.8208 134.956 63.1411C134.956 59.4613 137.258 56.9905 140.684 56.9905C144.109 56.9905 146.411 59.4541 146.411 63.1338V63.1411Z" fill="white"/>
<path d="M164.297 65.0358C164.297 67.7339 162.895 69.2789 160.451 69.2789C158.006 69.2789 156.604 67.7339 156.604 65.0358V53.5977H152.586V65.3864C152.586 70.0332 155.671 73.0384 160.451 73.0384C165.23 73.0384 168.315 70.0332 168.315 65.3864V53.5977H164.297V65.0358Z" fill="white"/>
<path d="M179.877 53.5977H171.185V72.6685H175.203V66.2035H179.877C184.321 66.2035 187.079 63.7858 187.079 59.9006C187.079 56.0154 184.316 53.5977 179.877 53.5977ZM183.061 59.9006C183.061 61.6365 181.922 62.5601 179.77 62.5601H175.203V57.2411H179.766C181.917 57.246 183.056 58.1647 183.056 59.9006H183.061Z" fill="white"/>
</g>
<defs>
<clipPath id="clip0_342_1989">
<rect width="203.19" height="79.544" fill="white"/>
</clipPath>
</defs>
</svg>
